# xmcd
#
# Track frame offsets:
#	150
#	11349
#	26524
#	38781
#	58268
#	70386
#	86251
#	99626
#	116346
#	132288
#	145956
#	162399
#
# Disc length: 2362 seconds
#
# Revision: 1
# Processed by: cddbd v1.5PL3 Copyright (c) Steve Scherf et al.
# Submitted via: CDex 1.50Beta5
#
DISCID=9d09380c
DTITLE=Nokie Edwards - PICKIN' IT UP
DYEAR=1900
DGENRE=
TTITLE0=Salt Creek
TTITLE1=Dance With Me
TTITLE2=Joy
TTITLE3=Peaceful Easy Feeling
TTITLE4=Alabama Jubilee
TTITLE5=What I Want To Tell You
TTITLE6=Cherokee Smoke
TTITLE7=Leona
TTITLE8=I Got A Woman
TTITLE9=Fools Rush In
TTITLE10=Too Young
TTITLE11=Orange Blossom Special
EXTD=
EXTT0=
EXTT1=
EXTT2=
EXTT3=
EXTT4=
EXTT5=
EXTT6=
EXTT7=
EXTT8=
EXTT9=
EXTT10=
EXTT11=
PLAYORDER=
